<?xml version="1.0" standalone="no"?>
<!DOCTYPE svg PUBLIC "-//W3C//DTD SVG 20010904//EN"
 "http://www.w3.org/TR/2001/REC-SVG-20010904/DTD/svg10.dtd">
<svg version="1.0" xmlns="http://www.w3.org/2000/svg"
 width="628.000000pt" height="628.000000pt" viewBox="0 0 628.000000 628.000000"
 preserveAspectRatio="xMidYMid meet">
<metadata>
Created by potrace 1.14, written by Peter Selinger 2001-2017
</metadata>
<g transform="translate(0.000000,628.000000) scale(0.100000,-0.100000)"
fill="#000000" stroke="none">
<path d="M2338 6257 c-16 -6 -28 -14 -28 -19 0 -4 -19 -17 -42 -29 -24 -12
-45 -25 -48 -28 -3 -4 -30 -24 -60 -46 -53 -38 -250 -227 -250 -240 0 -3 -9
-16 -21 -28 -19 -21 -119 -164 -119 -171 0 -2 -18 -35 -39 -74 -21 -39 -47
-93 -57 -119 -9 -26 -21 -53 -26 -59 -5 -7 -8 -16 -6 -20 1 -5 -4 -20 -12 -34
-7 -14 -13 -27 -12 -30 1 -3 -3 -23 -9 -45 -6 -22 -14 -53 -16 -70 -7 -40 -11
-60 -13 -60 -7 0 -23 -204 -23 -290 0 -81 16 -280 23 -280 1 0 3 -10 6 -22 8
-45 11 -59 18 -88 4 -16 10 -37 13 -45 4 -8 8 -26 10 -40 2 -14 8 -29 14 -34
5 -6 9 -16 9 -23 0 -7 9 -35 21 -61 88 -200 202 -375 344 -531 59 -65 174
-181 179 -181 3 0 17 -12 33 -27 51 -51 187 -163 248 -208 16 -11 34 -26 41
-32 7 -7 15 -13 19 -13 4 0 13 -6 20 -12 27 -24 41 -35 140 -106 55 -40 113
-82 129 -95 16 -12 33 -24 39 -26 5 -2 17 -10 26 -17 9 -7 82 -63 163 -123 81
-60 153 -115 160 -121 7 -6 23 -18 34 -28 173 -140 426 -397 458 -463 5 -11
12 -19 16 -19 4 0 20 -21 37 -47 84 -132 103 -164 103 -172 0 -5 6 -16 13 -23
14 -14 114 -258 120 -293 2 -11 7 -27 10 -35 14 -38 24 -94 30 -167 1 -18 4
-33 7 -33 3 0 5 -50 5 -110 1 -61 -2 -110 -5 -110 -3 0 -6 -23 -7 -50 l-3 -50
38 42 c20 23 46 51 57 63 39 41 71 80 72 88 1 5 8 14 16 20 16 14 137 181 137
190 0 3 13 25 29 49 25 37 99 179 147 283 38 84 111 303 129 390 8 41 13 60
15 60 1 0 3 9 5 20 5 32 15 98 20 125 8 44 17 124 20 170 2 25 4 45 5 45 10 0
-3 393 -15 435 -2 8 -6 35 -9 60 -7 59 -14 90 -32 158 -8 32 -17 65 -19 75 -2
9 -7 22 -10 27 -3 5 -8 18 -10 27 -7 31 -55 142 -87 201 -32 58 -117 193 -128
202 -3 3 -13 14 -21 26 -42 60 -309 343 -309 327 0 -2 -15 10 -33 29 -19 18
-53 49 -77 68 -23 19 -47 40 -54 45 -6 6 -36 30 -66 55 -30 25 -60 49 -67 55
-7 5 -18 15 -25 20 -15 12 -261 206 -298 235 -129 101 -249 195 -265 208 -11
10 -45 37 -75 62 -30 25 -56 48 -58 53 -2 4 -8 7 -12 7 -5 0 -20 10 -33 23
-12 12 -52 47 -87 77 -76 64 -269 255 -325 320 -47 55 -134 187 -168 256 -33
65 -68 174 -69 213 -1 17 -4 31 -7 31 -11 0 1 188 13 209 8 13 1 13 -36 -2z"/>
<path d="M1786 3770 c-6 -17 -32 -119 -41 -165 -19 -87 -46 -260 -52 -335 -12
-152 -6 -417 11 -505 3 -18 13 -80 22 -140 7 -42 13 -71 23 -102 5 -18 7 -33
3 -33 -3 0 -1 -5 6 -12 7 -7 12 -22 12 -33 0 -12 3 -25 7 -29 4 -3 8 -15 10
-24 4 -28 81 -216 112 -275 57 -107 130 -222 166 -263 6 -7 26 -31 45 -55 46
-56 145 -154 189 -188 20 -14 46 -35 58 -46 26 -23 20 -19 228 -177 88 -67
162 -125 163 -130 2 -4 8 -8 13 -8 18 0 174 -143 211 -194 15 -21 28 -36 28
-31 0 16 93 -130 129 -203 65 -130 128 -357 136 -489 2 -39 5 -75 6 -80 1 -4
1 -10 0 -13 -1 -3 -4 -29 -7 -58 -2 -29 -13 -78 -24 -109 l-19 -55 24 26 c14
15 25 30 25 33 0 5 28 41 73 93 7 9 23 33 36 53 13 21 28 43 35 50 7 6 15 19
19 27 4 8 25 42 47 75 42 65 114 187 115 195 0 3 5 12 10 20 34 55 136 294
150 355 2 6 10 37 19 70 25 89 26 96 43 215 4 30 8 129 8 220 -1 177 -14 265
-60 402 -14 40 -27 82 -30 93 -3 11 -9 21 -15 23 -5 2 -10 11 -10 20 0 15
-111 197 -147 239 -10 12 -34 41 -53 65 -44 54 -260 271 -320 320 -25 21 -76
61 -115 90 -38 28 -71 55 -73 60 -2 4 -9 8 -15 8 -7 0 -28 14 -47 30 -19 16
-40 30 -47 30 -6 0 -13 4 -15 8 -1 4 -25 23 -53 42 -27 19 -55 40 -62 47 -7 6
-22 15 -33 18 -11 3 -20 11 -20 16 0 5 -6 9 -14 9 -8 0 -16 3 -18 8 -3 8 -105
82 -113 82 -3 0 -16 9 -28 20 -12 11 -68 55 -123 98 -56 42 -125 97 -154 122
-74 63 -284 272 -350 349 -116 135 -118 137 -124 121z"/>
</g>
</svg>
